:SAMPLES-PER-SECOND 30
:FULLY-SPECIFIED
:DEGREES
245
root  -57.2421 39.8451 3.22901 -153.695 -87.7177 145.909
RightUpLeg  5.34849 -8.1595 -0.771179
RightLeg  17.6715 10.8636 2.17312
RightFoot  -13.8714 -0.196974 -4.68707
RightToes  -2.9104e-010 0 -3.6325e-017
Spine  2.48637 0.257566 10.1627
Spine1  6.12401 1.68618 -2.87654
HEad  -11.5335 15.0553 -19.0415
LeftShoulder1  -0.216916 4.0177 -36.032
LeftArm  -4.43304 18.6679 -40.8065
LeftForeArm  41.5499 -5.15989 -8.52381
LeftHand  -0.299285 9.20823 -7.19682
RightShoulder  -1.44025 -7.11446 33.358
RightArm  18.5658 16.8714 38.9829
RightForeArm  8.92619 10.2337 8.38415
RightHand  -0.361311 7.52102 -3.60781
LeftUpLeg  -14.7882 4.9653 1.76693
LeftLeg  29.1041 -2.09223 -0.894165
LeftFoot  -1.06998 0.414313 -4.54253
LeftToes  -3.37426e-010 -1.91496e-010 5.23909e-011
246
root  -58.3743 39.8275 3.26994 -163.262 -87.4352 155.216
RightUpLeg  8.60773 -8.64535 -1.29133
RightLeg  15.6554 11.9995 2.19
RightFoot  -14.804 -0.239312 -4.60795
RightToes  -2.9104e-010 0 -3.6325e-017
Spine  1.51946 0.65684 10.3434
Spine1  6.62445 2.04721 -3.68337
HEad  -10.3218 15.1089 -18.6632
LeftShoulder1  -0.186594 3.94851 -35.7324
LeftArm  -3.55574 16.4145 -40.437
LeftForeArm  41.7797 -4.67959 -8.97966
LeftHand  -0.321476 9.66361 -6.89917
RightShoulder  -1.2224 -6.71827 31.4819
RightArm  14.5773 24.7343 38.8609
RightForeArm  6.74414 6.87251 8.61933
RightHand  -0.296509 7.23304 -3.0799
LeftUpLeg  -14.0156 4.66029 2.02694
LeftLeg  17.4064 -3.37254 -0.905253
LeftFoot  -0.422791 0.563163 -5.86801
LeftToes  -3.37426e-010 -1.91496e-010 5.23909e-011
247
root  -59.5076 39.7828 3.28901 -169.751 -87.249 161.84
RightUpLeg  11.3857 -8.53774 -1.46036
RightLeg  13.6118 12.3295 1.84574
RightFoot  -15.6413 -0.278675 -4.59496
RightToes  -2.9104e-010 0 -3.6325e-017
Spine  0.616284 0.957368 10.3105
Spine1  6.67875 2.3431 -4.77941
HEad  -9.42294 15.1438 -18.2883
LeftShoulder1  -0.155172 3.88325 -34.823
LeftArm  -2.89771 14.7934 -40.1664
LeftForeArm  40.7735 -4.99373 -9.36531
LeftHand  -0.245134 9.45005 -5.27932
RightShoulder  -1.00956 -6.30195 29.5656
RightArm  10.356 29.832 38.6201
RightForeArm  4.3404 6.05883 7.41691
RightHand  -0.261676 7.13604 -2.77619
LeftUpLeg  -13.3825 4.13491 2.27058
LeftLeg  5.95511 -2.98641 -0.3988
LeftFoot  0.666078 0.65389 -6.24769
LeftToes  -3.37426e-010 -1.91496e-010 5.23909e-011
248
root  -60.6565 39.6331 3.33704 -179.405 -87.2902 171.396
RightUpLeg  13.9126 -8.23328 -1.28497
RightLeg  12.6696 12.0935 1.48792
RightFoot  -16.9432 -0.340513 -4.62936
RightToes  -2.9104e-010 0 -3.6325e-017
Spine  0.191574 1.10846 10.7229
Spine1  6.78981 2.68632 -6.21041
HEad  -9.08138 15.1445 -17.7207
LeftShoulder1  -0.22192 4.05121 -34.3828
LeftArm  -3.35766 12.6092 -39.6134
LeftForeArm  40.3851 -5.57699 -9.11781
LeftHand  -0.228274 9.65406 -4.54948
RightShoulder  -0.895515 -6.06082 28.3962
RightArm  6.56647 33.2504 37.4283
RightForeArm  1.31403 7.66162 6.25345
RightHand  -0.347125 7.6309 -3.4576
LeftUpLeg  -12.8974 4.21604 2.69248
LeftLeg  -2.61067 -1.16242 -0.422233
LeftFoot  0.593582 0.732215 -7.06471
LeftToes  -3.37426e-010 -1.91496e-010 5.23909e-011
249
root  -61.8186 39.3717 3.42305 175.03 -87.6325 176.908
RightUpLeg  15.732 -7.97962 -1.3554
RightLeg  13.2793 11.67 1.47819
RightFoot  -18.9717 -0.409072 -4.20549
RightToes  -2.9104e-010 0 -3.6325e-017
Spine  0.182232 1.12216 10.1276
Spine1  6.48669 2.63883 -6.22522
HEad  -9.47953 15.1012 -17.6988
LeftShoulder1  -0.211156 4.02163 -34.6396
LeftArm  -3.4683 11.093 -38.7452
LeftForeArm  38.4901 -7.25056 -8.79538
LeftHand  -0.178505 9.13754 -3.74167
RightShoulder  -0.685126 -5.57696 26.3915
RightArm  3.19317 34.5192 36.4536
RightForeArm  -0.616661 11.3417 4.96661
RightHand  -0.457825 7.89005 -4.3587
LeftUpLeg  -13.7174 3.90785 2.36446
LeftLeg  -4.5207 0.906205 -0.323547
LeftFoot  -0.939186 0.68633 -7.39356
LeftToes  -3.37426e-010 -1.91496e-010 5.23909e-011
250
root  -63.0181 39.0889 3.5003 -178.236 -88.6184 169.815
RightUpLeg  17.7862 -7.33621 -1.52909
RightLeg  14.2349 10.0556 1.28499
RightFoot  -20.9827 -0.439712 -3.53663
RightToes  -2.9104e-010 0 -3.6325e-017
Spine  0.334792 0.876778 8.92429
Spine1  6.8083 2.51526 -6.40748
HEad  -10.1589 14.4402 -17.282
LeftShoulder1  -0.204617 4.00624 -34.4286
LeftArm  -2.75972 8.72664 -38.3119
LeftForeArm  35.0141 -8.14241 -8.8772
LeftHand  -0.0915572 8.67619 -1.45213
RightShoulder  -0.610683 -5.38389 25.763
RightArm  0.218713 34.6834 34.3005
RightForeArm  -2.90485 16.8538 4.29068
RightHand  -0.602125 8.79381 -5.3002
LeftUpLeg  -14.9441 3.30316 1.32729
LeftLeg  -0.678545 1.8078 -0.229627
LeftFoot  1.78679 0.369649 -3.67947
LeftToes  -3.37426e-010 -1.91496e-010 5.23909e-011
251
root  -64.3351 38.8121 3.61701 -154.516 -88.6023 145.618
RightUpLeg  19.6892 -5.76403 -2.07909
RightLeg  16.0205 8.42643 1.36174
RightFoot  -22.6653 -0.352172 -2.02183
RightToes  -2.9104e-010 0 -3.6325e-017
Spine  0.285729 1.4082 8.54917
Spine1  7.21588 3.4552 -7.88823
HEad  -10.1626 12.4543 -15.9081
LeftShoulder1  -0.0494166 3.62794 -33.895
LeftArm  -2.20536 6.37714 -38.2126
LeftForeArm  32.6729 -8.61975 -8.92688
LeftHand  -0.0476861 8.0535 -0.202605
RightShoulder  -0.68998 -5.62872 25.7904
RightArm  -5.1927 32.6948 31.6457
RightForeArm  -1.33832 23.3082 4.9379
RightHand  -0.70361 9.2292 -5.96393
LeftUpLeg  -16.1211 3.11367 0.196454
LeftLeg  4.91937 1.75137 -0.137731
LeftFoot  9.03015 -0.125508 0.607501
LeftToes  -3.37426e-010 -1.91496e-010 5.23909e-011
252
root  -65.6671 38.5742 3.72536 -146.848 -87.5026 137.299
RightUpLeg  20.8748 -2.25103 -2.25876
RightLeg  19.3126 5.77523 1.64361
RightFoot  -23.8033 -0.0878682 0.648264
RightToes  -2.9104e-010 0 -3.6325e-017
Spine  0.727155 2.13298 7.37858
Spine1  6.98995 4.32514 -8.51216
HEad  -10.044 10.82 -14.598
LeftShoulder1  -0.125799 3.8074 -35.1527
LeftArm  -0.52975 4.40942 -36.6583
LeftForeArm  30.3113 -10.3052 -8.81755
LeftHand  -0.0433784 7.84824 0.0559739
RightShoulder  -0.650592 -5.52226 25.54
RightArm  -9.26009 29.2268 30.3505
RightForeArm  2.58864 29.9816 6.39898
RightHand  -0.715555 9.8361 -5.84193
LeftUpLeg  -16.3163 4.86821 -0.658501
LeftLeg  9.49418 -0.098935 -0.570714
LeftFoot  13.769 -0.0906444 0.0564114
LeftToes  -3.37426e-010 -1.91496e-010 5.23909e-011
253
root  -66.916 38.5213 3.84278 -128.273 -85.8236 118.333
RightUpLeg  20.3169 -0.401876 -4.43216
RightLeg  25.1208 5.17371 2.51802
RightFoot  -22.9227 0.411229 5.65452
RightToes  -2.9104e-010 0 -3.6325e-017
Spine  1.36082 2.2797 4.79577
Spine1  6.44521 4.65408 -9.67779
HEad  -10.1457 10.2906 -12.8225
LeftShoulder1  -0.265481 4.14187 -35.4637
LeftArm  0.389161 3.22674 -35.6959
LeftForeArm  27.497 -11.6815 -8.42607
LeftHand  -0.019971 7.26812 1.05052
RightShoulder  -0.65809 -5.48901 26.4389
RightArm  -9.91266 25.3939 30.9422
RightForeArm  6.26878 35.9012 7.76403
RightHand  -0.784003 10.7293 -6.04189
LeftUpLeg  -16.8844 6.99222 -3.25943
LeftLeg  15.328 -1.84433 -0.610302
LeftFoot  10.5338 -0.626764 2.9015
LeftToes  -3.37426e-010 -1.91496e-010 5.23909e-011
254
root  -68.0096 38.5536 4.01669 -126.184 -84.3104 116.408
RightUpLeg  16.3933 -1.39522 -7.98978
RightLeg  34.8723 6.97295 4.96402
RightFoot  -18.4543 0.593511 12.1006
RightToes  -2.9104e-010 0 -3.6325e-017
Spine  2.15568 2.21275 3.65114
Spine1  5.42538 4.81248 -12.0417
HEad  -10.5858 9.27078 -11.3812
LeftShoulder1  -0.240053 4.09262 -34.6256
LeftArm  0.0870231 3.05175 -35.9624
LeftForeArm  25.7937 -12.6549 -7.87729
LeftHand  -0.0460447 9.01443 0.221863
RightShoulder  -0.719931 -5.63157 27.1827
RightArm  -8.04737 20.8234 33.2847
RightForeArm  9.99616 41.0665 9.11343
RightHand  -0.866211 9.92366 -6.9443
LeftUpLeg  -16.6729 7.11949 -5.01157
LeftLeg  18.0883 -1.0105 -0.133145
LeftFoot  8.0778 -0.75082 4.08593
LeftToes  -3.37426e-010 -1.91496e-010 5.23909e-011
255
root  -68.9374 38.7303 4.14323 -132.827 -82.7542 123.447
RightUpLeg  9.93934 -1.36327 -10.5062
RightLeg  45.847 6.96744 7.30708
RightFoot  -8.79004 -0.35223 15.6386
RightToes  -2.9104e-010 0 -3.6325e-017
Spine  3.28124 2.46734 2.1474
Spine1  4.09257 4.77128 -12.5669
HEad  -10.7556 6.34318 -12.2528
LeftShoulder1  -0.21012 4.01546 -34.9021
LeftArm  -0.463128 2.42592 -36.1158
LeftForeArm  25.4264 -12.1402 -8.02166
LeftHand  -0.0908411 10.5822 -0.54561
RightShoulder  -0.674405 -5.51881 26.7868
RightArm  -4.22166 16.5753 35.8738
RightForeArm  13.5532 44.0741 9.91299
RightHand  -0.766082 9.32133 -6.40785
LeftUpLeg  -15.6201 7.20177 -5.59652
LeftLeg  18.5626 0.56167 0.0883696
LeftFoot  6.14446 -0.698255 4.29146
LeftToes  -3.37426e-010 -1.91496e-010 5.23909e-011
256
root  -69.7904 38.9045 4.25175 -141.58 -80.9415 132.538
RightUpLeg  2.58001 -0.0386346 -11.676
RightLeg  55.9958 5.2602 7.85546
RightFoot  0.648868 -1.46819 13.8513
RightToes  -2.9104e-010 0 -3.6325e-017
Spine  4.32657 2.58361 -0.0136507
Spine1  3.09862 4.36671 -11.4929
HEad  -12.1984 3.69236 -13.837
LeftShoulder1  -0.238243 4.08111 -35.1134
LeftArm  -1.79202 2.20442 -37.0384
LeftForeArm  26.2954 -12.0208 -7.73923
LeftHand  -0.0158289 8.10331 1.1084
RightShoulder  -0.649365 -5.44597 26.7419
RightArm  0.642934 14.3044 38.6039
RightForeArm  17.8651 44.0368 9.61088
RightHand  -0.539102 9.10885 -4.70476
LeftUpLeg  -14.4714 7.89158 -5.66783
LeftLeg  18.8397 2.1328 0.114475
LeftFoot  4.26681 -0.605831 4.22871
LeftToes  -3.37426e-010 -1.91496e-010 5.23909e-011
257
root  -70.5842 39.1018 4.33304 -146.844 -80.031 138.021
RightUpLeg  -3.49313 -0.312759 -12.1924
RightLeg  62.9639 2.94159 5.73649
RightFoot  0.557189 -1.36696 13.079
RightToes  -2.9104e-010 0 -3.6325e-017
Spine  4.56133 2.16091 -1.83611
Spine1  3.59099 3.48371 -9.8588
HEad  -15.0948 1.41232 -14.8825
LeftShoulder1  -0.178178 3.93433 -35.1931
LeftArm  -1.2976 1.17188 -37.8707
LeftForeArm  27.6933 -12.0598 -7.83413
LeftHand  -0.0661237 8.98022 -0.551772
RightShoulder  -0.667964 -5.4682 27.3053
RightArm  7.12706 13.4259 41.0705
RightForeArm  19.719 41.4228 8.59149
RightHand  -0.52169 8.41091 -4.74418
LeftUpLeg  -13.1474 7.49665 -5.31468
LeftLeg  18.7752 3.74974 0.333874
LeftFoot  2.8326 -0.532729 4.14458
LeftToes  -3.37426e-010 -1.91496e-010 5.23909e-011
258
root  -71.3485 39.3823 4.39775 -153.339 -79.8145 144.298
RightUpLeg  -8.38649 -0.974435 -11.6483
RightLeg  66.6017 1.58602 3.40755
RightFoot  0.0717212 -1.07311 10.7246
RightToes  -2.9104e-010 0 -3.6325e-017
Spine  5.81344 1.58532 -3.01227
Spine1  3.1905 2.4047 -7.8639
HEad  -16.7985 -1.05263 -15.8117
LeftShoulder1  -0.0546989 3.63707 -34.9696
LeftArm  2.4326 -0.143537 -38.3122
LeftForeArm  26.7439 -12.1339 -8.68458
LeftHand  -0.0795148 9.29238 -0.810604
RightShoulder  -0.756404 -5.69387 27.906
RightArm  14.3981 12.1619 43.4307
RightForeArm  18.3919 36.7505 7.27769
RightHand  -0.404442 7.52947 -3.99658
LeftUpLeg  -10.9558 7.15011 -4.32677
LeftLeg  17.8682 4.68143 0.339896
LeftFoot  1.97177 -0.50098 4.19198
LeftToes  -3.37426e-010 -1.91496e-010 5.23909e-011
259
root  -72.0854 39.6062 4.38037 -158.875 -80.0298 150.24
RightUpLeg  -13.0751 -1.95091 -10.5104
RightLeg  67.2216 0.985145 1.92677
RightFoot  -0.0140759 -1.00092 10.0653
RightToes  -2.9104e-010 0 -3.6325e-017
Spine  6.61678 0.995553 -4.3656
Spine1  2.27612 1.2316 -5.56188
HEad  -16.7618 -4.50214 -17.1983
LeftShoulder1  -0.0632015 3.65808 -34.7845
LeftArm  5.38161 -0.568676 -38.9927
LeftForeArm  26.0636 -13.3081 -8.57807
LeftHand  -0.0898715 9.05507 -1.2333
RightShoulder  -0.7884 -5.74756 28.5054
RightArm  21.9747 9.92962 45.7163
RightForeArm  13.3338 29.6732 5.62335
RightHand  -0.386694 7.74853 -3.76335
LeftUpLeg  -9.70394 7.14038 -3.15006
LeftLeg  17.3453 4.73175 0.115161
LeftFoot  1.09013 -0.500985 4.53479
LeftToes  -3.37426e-010 -1.91496e-010 5.23909e-011
